<svg viewBox="0 0 600 460" width="600" height="460" fill="none" xmlns="http://www.w3.org/2000/svg" role="img" aria-label="byteSquad app dashboard preview">
  <defs>
    <linearGradient id="bmBlue" x1="0" y1="0" x2="1" y2="1">
      <stop offset="0" stop-color="#3B82F6"/><stop offset="1" stop-color="#60A5FA"/>
    </linearGradient>
    <filter id="bmShadow" x="-30%" y="-30%" width="160%" height="160%">
      <feDropShadow dx="0" dy="22" stdDeviation="26" flood-color="#1e3a8a" flood-opacity="0.16"/>
    </filter>
  </defs>

  <!-- window -->
  <rect x="46" y="34" width="508" height="392" rx="22" fill="#ffffff" filter="url(#bmShadow)"/>

  <!-- top bar -->
  <path d="M46 56a22 22 0 0 1 22-22h464a22 22 0 0 1 22 22v26H46z" fill="#F7FAFF"/>
  <circle cx="74" cy="58" r="5.5" fill="#F87171"/>
  <circle cx="93" cy="58" r="5.5" fill="#FBBF24"/>
  <circle cx="112" cy="58" r="5.5" fill="#34D399"/>
  <rect x="176" y="49" width="248" height="18" rx="9" fill="#EDF2F9"/>

  <!-- sidebar -->
  <rect x="46" y="82" width="126" height="344" fill="#FBFCFF"/>
  <circle cx="74" cy="112" r="10" fill="url(#bmBlue)"/>
  <rect x="92" y="107" width="56" height="10" rx="5" fill="#DDE6F3"/>
  <rect x="66" y="150" width="92" height="12" rx="6" fill="#DCE7FB"/>
  <rect x="66" y="180" width="78" height="12" rx="6" fill="#EEF2F7"/>
  <rect x="66" y="210" width="84" height="12" rx="6" fill="#EEF2F7"/>
  <rect x="66" y="240" width="70" height="12" rx="6" fill="#EEF2F7"/>
  <rect x="66" y="270" width="80" height="12" rx="6" fill="#EEF2F7"/>

  <!-- hero banner card -->
  <rect x="192" y="104" width="338" height="104" rx="16" fill="url(#bmBlue)"/>
  <rect x="214" y="130" width="150" height="14" rx="7" fill="#ffffff"/>
  <rect x="214" y="154" width="226" height="10" rx="5" fill="#ffffff" opacity="0.6"/>
  <rect x="214" y="172" width="96" height="22" rx="11" fill="#ffffff"/>

  <!-- stat cards -->
  <g>
    <rect x="192" y="224" width="106" height="76" rx="13" fill="#F8FAFC" stroke="#EDF2F9"/>
    <rect x="210" y="242" width="40" height="8" rx="4" fill="#CBD5E1"/>
    <rect x="210" y="260" width="58" height="16" rx="5" fill="#3B82F6"/>
    <rect x="308" y="224" width="106" height="76" rx="13" fill="#F8FAFC" stroke="#EDF2F9"/>
    <rect x="326" y="242" width="40" height="8" rx="4" fill="#CBD5E1"/>
    <rect x="326" y="260" width="58" height="16" rx="5" fill="#60A5FA"/>
    <rect x="424" y="224" width="106" height="76" rx="13" fill="#F8FAFC" stroke="#EDF2F9"/>
    <rect x="442" y="242" width="40" height="8" rx="4" fill="#CBD5E1"/>
    <rect x="442" y="260" width="58" height="16" rx="5" fill="#93C5FD"/>
  </g>

  <!-- chart card -->
  <rect x="192" y="316" width="338" height="94" rx="14" fill="#F8FAFC" stroke="#EDF2F9"/>
  <rect x="212" y="334" width="70" height="9" rx="4.5" fill="#CBD5E1"/>
  <g>
    <rect x="212" y="372" width="18" height="20" rx="4" fill="#BFDBFE"/>
    <rect x="242" y="360" width="18" height="32" rx="4" fill="#93C5FD"/>
    <rect x="272" y="344" width="18" height="48" rx="4" fill="#60A5FA"/>
    <rect x="302" y="356" width="18" height="36" rx="4" fill="#3B82F6"/>
    <rect x="332" y="336" width="18" height="56" rx="4" fill="#2563EB"/>
    <rect x="362" y="352" width="18" height="40" rx="4" fill="#60A5FA"/>
    <rect x="392" y="366" width="18" height="26" rx="4" fill="#93C5FD"/>
  </g>
  <path d="M432 384 L452 372 L472 378 L492 358 L512 366" stroke="#3B82F6" stroke-width="3" stroke-linecap="round" stroke-linejoin="round" fill="none"/>
  <circle cx="492" cy="358" r="4" fill="#2563EB"/>
</svg>
