<svg xmlns="http://www.w3.org/2000/svg" width="711" height="175" viewBox="0 0 710.6 175.1"><g transform="translate(30.00,120.18) scale(0.12000,-0.12000) translate(-92.00,0)"><path d="M374 -18Q308 -18 256.5 11.0Q205 40 175.0 95.5Q145 151 142 229H168V0H92V730H188V375L154 302Q158 389 189.0 444.0Q220 499 270.5 525.5Q321 552 382 552Q439 552 486.0 530.5Q533 509 567.0 471.5Q601 434 619.0 384.5Q637 335 637 278V260Q637 203 618.5 153.0Q600 103 565.0 64.5Q530 26 481.5 4.0Q433 -18 374 -18ZM363 66Q417 66 457.0 92.0Q497 118 519.0 163.5Q541 209 541 269Q541 329 518.5 374.0Q496 419 456.0 443.5Q416 468 363 468Q315 468 274.0 446.5Q233 425 208.5 384.5Q184 344 184 287V241Q184 186 209.0 147.0Q234 108 275.0 87.0Q316 66 363 66Z" transform="translate(0,0)" fill="#C7CBD4"/><path d="M56 -208V-122H133Q167 -122 190.5 -113.5Q214 -105 229.5 -85.0Q245 -65 255 -32L423 534H517L339 -57Q323 -110 294.0 -143.5Q265 -177 223.5 -192.5Q182 -208 127 -208ZM219 12V92H335V12ZM209 12 18 534H116L299 12Z" transform="translate(689,0)" fill="#C7CBD4"/><path d="M300 -6Q240 -6 196.5 11.0Q153 28 129.5 69.5Q106 111 106 182V696H198V170Q198 127 221.5 103.5Q245 80 288 80H382V-6ZM14 462V534H382V462Z" transform="translate(1236,0)" fill="#C7CBD4"/><path d="M319 -18Q249 -18 198.0 6.0Q147 30 115.0 69.5Q83 109 67.5 158.0Q52 207 52 258V276Q52 328 67.5 377.0Q83 426 115.0 465.5Q147 505 196.5 528.5Q246 552 313 552Q400 552 456.5 514.5Q513 477 540.5 418.0Q568 359 568 292V249H94V321H498L476 282Q476 339 458.0 380.5Q440 422 404.0 445.0Q368 468 313 468Q256 468 218.5 442.0Q181 416 162.5 371.0Q144 326 144 267Q144 210 162.5 164.5Q181 119 220.0 92.5Q259 66 319 66Q382 66 421.5 94.0Q461 122 469 159H559Q548 104 515.0 64.0Q482 24 432.0 3.0Q382 -18 319 -18Z" transform="translate(1662,0)" fill="#C7CBD4"/><path d="M336.25 -19.5Q237 -19.5 168.875 12.0Q100.75 43.5 65.625 98.375Q30.5 153.25 30.5 224H190Q190 196.25 205.25 171.875Q220.5 147.5 252.625 133.0Q284.75 118.5 336.25 118.5Q382 118.5 413.125 130.875Q444.25 143.25 460.125 164.625Q476 186 476 214Q476 249.25 446.0 269.75Q416 290.25 349.25 295.75L293.75 300.5Q184.75 310 120.0 368.75Q55.25 427.5 55.25 524.5Q55.25 595.25 88.5 646.0Q121.75 696.75 182.0 724.125Q242.25 751.5 323.75 751.5Q410.25 751.5 471.625 722.0Q533 692.5 565.875 639.0Q598.75 585.5 598.75 514H439.25Q439.25 540.75 426.125 563.5Q413 586.25 387.375 599.875Q361.75 613.5 323.75 613.5Q287.75 613.5 263.5 601.625Q239.25 589.75 227.0 569.375Q214.75 549 214.75 524.5Q214.75 493.5 236.75 470.75Q258.75 448 309.25 443.75L364.75 439Q445 432.25 505.875 404.5Q566.75 376.75 601.125 329.375Q635.5 282 635.5 214Q635.5 144 599.125 91.25Q562.75 38.5 495.875 9.5Q429 -19.5 336.25 -19.5Z" transform="translate(2274,0)" fill="#FFFFFF"/><path d="M470.25 -200V162L512.75 220Q510.5 145.75 483.0 92.375Q455.5 39 406.875 10.5Q358.25 -18 292.25 -18Q234.5 -18 187.75 3.25Q141 24.5 107.625 62.375Q74.25 100.25 56.375 151.125Q38.5 202 38.5 261.25V283.75Q38.5 342.9564516129032 57.125 393.85322580645163Q75.75 444.75 110.39163822525597 482.97115384615387Q145.03327645051195 521.1923076923077 192.54180887372013 542.5961538461538Q240.05034129692834 564 298.4462457337884 564Q365.75 564 415.375 534.625Q465 505.25 492.75 449.5Q520.5 393.75 522.75 314H503.75V547.5H630.75V-200ZM338.5 116.5Q375.81976744186045 116.5 406.2848837209302 133.25Q436.75 150 455.5 182.125Q474.25 214.25 474.25 259.0143312101911V295.7850318471338Q474.25 339.75 455.0 369.625Q435.75 399.5 405.09684065934067 415.5Q374.44368131868134 431.5 338.8708791208791 431.5Q298 431.5 266.5 411.375Q235 391.25 217.0 355.4537914691943Q199 319.6575829383886 199 272.4537914691943Q199 225.25 217.125 190.25Q235.25 155.25 266.8414179104478 135.875Q298.43283582089555 116.5 338.5 116.5Z" transform="translate(2941,0)" fill="#FFFFFF"/><path d="M257.5 -17.5Q163.25 -17.5 111.875 44.125Q60.5 105.75 60.5 230.25V547.75H221V221.75Q221 178.25 246.0 152.125Q271 126 313.25 126Q356 126 382.75 152.875Q409.5 179.75 409.5 225.75V547.75H570V0H443V231.25H453.5Q453.5 147.75 432.125 92.5Q410.75 37.25 368.875 9.875Q327 -17.5 264.5 -17.5Z" transform="translate(3644,0)" fill="#FFFFFF"/><path d="M403.75 0V161.5H377.25V337.5Q377.25 379.75 357.0 400.625Q336.75 421.5 293 421.5Q271 421.5 235.0 420.5Q199 419.5 160.75 417.75Q122.5 416 91.5 414V549Q115 551 145.875 552.875Q176.75 554.75 209.875 555.625Q243 556.5 271.5 556.5Q355.75 556.5 413.375 532.875Q471 509.25 500.875 460.75Q530.75 412.25 530.75 335.75V0ZM228.75 -14Q170.25 -14 125.625 6.875Q81 27.75 56.0 67.125Q31 106.5 31 161.5Q31 222.25 62.125 260.625Q93.25 299 149.0 317.375Q204.75 335.75 278.25 335.75H394.75V247.25H277.25Q235 247.25 212.25 226.375Q189.5 205.5 189.5 171.25Q189.5 137.75 212.25 117.125Q235 96.5 277.25 96.5Q303.75 96.5 325.375 106.0Q347 115.5 361.125 138.625Q375.25 161.75 377.25 202.5L415.25 163Q410.25 106 387.75 66.75Q365.25 27.5 325.75 6.75Q286.25 -14 228.75 -14Z" transform="translate(4289,0)" fill="#FFFFFF"/><path d="M298.5 -18Q240.75 -18 193.125 3.0Q145.5 24 110.75 61.625Q76 99.25 57.25 150.0Q38.5 200.75 38.5 260.25V282.75Q38.5 342 56.375 393.125Q74.25 444.25 107.625 482.625Q141 521 188.125 542.5Q235.25 564 293.25 564Q358.75 564 406.875 535.5Q455 507 482.125 451.5Q509.25 396 511.75 314.5L470.25 353.75V730H630.75V0H503.75V227.25H525.75Q523.25 149 493.75 94.0Q464.25 39 414.25 10.5Q364.25 -18 298.5 -18ZM338.5 115.5Q375.5 115.5 406.125 132.25Q436.75 149 455.5 181.125Q474.25 213.25 474.25 258V295Q474.25 338.75 455.0 368.625Q435.75 398.5 405.0 414.5Q374.25 430.5 338.25 430.5Q298 430.5 266.5 410.375Q235 390.25 217.0 354.625Q199 319 199 271.5Q199 224 217.125 189.0Q235.25 154 266.875 134.75Q298.5 115.5 338.5 115.5Z" transform="translate(4883,0)" fill="#FFFFFF"/></g></svg>