<svg xmlns="http://www.w3.org/2000/svg" viewBox="0 0 48 48">
<defs><linearGradient id="g" x1="4" y1="2" x2="44" y2="46" gradientUnits="userSpaceOnUse"><stop stop-color="#FBBF24"/><stop offset="1" stop-color="#D97706"/></linearGradient></defs>
<rect width="48" height="48" rx="13" fill="url(#g)"/>
<rect x="1" y="1" width="46" height="46" rx="12" fill="none" stroke="#fff" stroke-opacity=".25"/>
<rect width="48" height="23" rx="13" fill="#fff" opacity=".12"/>
<g transform="translate(10,10) scale(1.1667)" fill="none" stroke="#fff" stroke-width="2" stroke-linecap="round" stroke-linejoin="round"><path d="M5 11l1.4-4.2A2 2 0 0 1 8.3 5.4h7.4a2 2 0 0 1 1.9 1.4L19 11"/><path d="M4 11h16a1 1 0 0 1 1 1v3a1 1 0 0 1-1 1H4a1 1 0 0 1-1-1v-3a1 1 0 0 1 1-1z"/><path d="M6 16v2.3M18 16v2.3"/><circle cx="7.5" cy="13.5" r=".4" fill="#fff"/><circle cx="16.5" cy="13.5" r=".4" fill="#fff"/></g>
</svg>
